#define apps_width 10
#define apps_height 10
static unsigned char apps_bits[] = {
   0x33, 0x03, 0x33, 0x03, 0x00, 0x00, 0x00, 0x00, 0x33, 0x03, 0x33, 0x03,
   0x00, 0x00, 0x00, 0x00, 0x33, 0x03, 0x33, 0x03 };
