#define main_width 10
#define main_height 10
static unsigned char main_bits[] = {
   0x30, 0x00, 0x78, 0x00, 0xfc, 0x00, 0xfe, 0x01, 0xff, 0x03, 0x06, 0x01,
   0x26, 0x01, 0x26, 0x01, 0x26, 0x01, 0xfe, 0x01 };
