#define media_width 10
#define media_height 10
static unsigned char media_bits[] = {
   0xff, 0x03, 0x01, 0x02, 0x09, 0x02, 0x19, 0x02, 0x39, 0x02, 0x39, 0x02,
   0x19, 0x02, 0x09, 0x02, 0x01, 0x02, 0xff, 0x03 };
