#define misc_width 10
#define misc_height 10
static unsigned char misc_bits[] = {
   0xf0, 0x00, 0xf0, 0x00, 0xf0, 0x00, 0x00, 0x00, 0xfc, 0x00, 0xf0, 0x00,
   0xf0, 0x00, 0xf0, 0x00, 0xf0, 0x00, 0xfc, 0x03 };
