#define term_width 10
#define term_height 10
static unsigned char term_bits[] = {
   0xff, 0x03, 0x01, 0x02, 0x05, 0x02, 0x09, 0x02, 0x05, 0x02, 0x01, 0x02,
   0x01, 0x02, 0x01, 0x02, 0x01, 0x02, 0xff, 0x03 };
