#define browse_width 10
#define browse_height 10
static unsigned char browse_bits[] = {
   0xff, 0x03, 0x31, 0x02, 0x01, 0x02, 0x01, 0x02, 0xff, 0x03, 0x31, 0x02,
   0x31, 0x02, 0x01, 0x02, 0x01, 0x02, 0xff, 0x03 };
