#define dev_width 10
#define dev_height 10
static unsigned char dev_bits[] = {
   0x38, 0x00, 0x60, 0x00, 0x60, 0x00, 0xc0, 0x00, 0xe0, 0x00, 0xf0, 0x00,
   0x98, 0x00, 0x8c, 0x01, 0x86, 0x01, 0x03, 0x03 };
