#define web_width 10
#define web_height 10
static unsigned char web_bits[] = {
   0x78, 0x00, 0xa4, 0x00, 0x22, 0x01, 0x61, 0x02, 0xf1, 0x03, 0xf9, 0x03,
   0x5f, 0x02, 0x8e, 0x01, 0x8c, 0x00, 0x78, 0x00 };
