#define power_ac_cropped_width 11
#define power_ac_cropped_height 9
static unsigned char power_ac_cropped_bits[] = {
   0xc0, 0x00, 0xe0, 0x00, 0xf0, 0x07, 0xf8, 0x00, 0xff, 0x00, 0xf8, 0x00,
   0xf0, 0x07, 0xe0, 0x00, 0xc0, 0x00 };
