#define power_bat2_cropped_width 10
#define power_bat2_cropped_height 10
static unsigned char power_bat2_cropped_bits[] = {
   0x00, 0x00, 0x00, 0x00, 0xfe, 0x00, 0x8e, 0x01, 0x8e, 0x01, 0x8e, 0x01,
   0x8e, 0x01, 0xfe, 0x00, 0x00, 0x00, 0x00, 0x00 };
